# Blender v2.92.0 OBJ File: 'simpletestlvl.blend'
# www.blender.org
mtllib simpletestlvl.mtl
o Cube
v -4.677852 -4.677852 4.677852
v -4.677852 4.677852 4.677852
v -4.677852 -4.677852 -4.677852
v -4.677852 4.677852 -4.677852
v 4.677852 -4.677852 4.677852
v 4.677852 4.677852 4.677852
v 4.677852 -4.677852 -4.677852
v 4.677852 4.677852 -4.677852
v -2.337520 4.677852 4.677852
v -2.337520 -4.677852 -4.677852
v -2.337520 4.677852 -4.677852
v -2.337520 -4.677852 4.677852
v 2.519718 4.677852 4.677852
v 2.519718 -4.677852 -4.677852
v 2.519718 4.677852 -4.677852
v 2.519718 -4.677852 4.677852
v 2.519718 -4.677852 24.393177
v -2.337520 -4.677852 24.393177
v -2.337520 4.677852 24.393177
v 2.519718 4.677852 24.393177
vt 0.817331 0.500000
vt 0.817331 0.750000
vt 0.875000 0.750000
vt 0.875000 0.500000
vt 0.375000 0.942331
vt 0.375000 1.000000
vt 0.625000 1.000000
vt 0.625000 0.942331
vt 0.375000 0.000000
vt 0.375000 0.250000
vt 0.625000 0.250000
vt 0.625000 0.000000
vt 0.312462 0.500000
vt 0.312462 0.750000
vt 0.375000 0.750000
vt 0.375000 0.500000
vt 0.625000 0.750000
vt 0.625000 0.500000
vt 0.375000 0.437462
vt 0.625000 0.437462
vt 0.312462 0.500000
vt 0.182669 0.500000
vt 0.182669 0.500000
vt 0.182669 0.750000
vt 0.375000 0.812538
vt 0.625000 0.812538
vt 0.687538 0.750000
vt 0.687538 0.500000
vt 0.125000 0.500000
vt 0.125000 0.750000
vt 0.375000 0.307669
vt 0.625000 0.307669
vt 0.625000 0.437462
vt 0.375000 0.437462
vt 0.375000 0.307669
vt 0.625000 0.307669
vt 0.817331 0.500000
vt 0.687538 0.500000
vn 0.0000 -1.0000 0.0000
vn 0.0000 0.0000 -1.0000
vn 1.0000 0.0000 0.0000
vn 0.0000 1.0000 0.0000
vn -1.0000 0.0000 0.0000
vn 0.0000 0.0000 1.0000
usemtl Material
s off
f 16/1/1 14/2/1 7/3/1 5/4/1
f 15/5/2 8/6/2 7/7/2 14/8/2
f 8/9/3 6/10/3 5/11/3 7/12/3
f 9/13/4 11/14/4 4/15/4 2/16/4
f 2/16/5 4/15/5 3/17/5 1/18/5
f 9/19/6 2/16/6 1/18/6 12/20/6
f 9/13/4 19/21/4 20/22/4 13/23/4
f 13/23/4 15/24/4 11/14/4 9/13/4
f 4/15/2 11/25/2 10/26/2 3/17/2
f 1/18/1 3/17/1 10/27/1 12/28/1
f 6/29/4 8/30/4 15/24/4 13/23/4
f 6/10/6 13/31/6 16/32/6 5/11/6
f 11/25/2 15/5/2 14/8/2 10/26/2
f 12/28/1 10/27/1 14/2/1 16/1/1
f 12/20/5 18/33/5 19/34/5 9/19/5
f 13/31/3 20/35/3 17/36/3 16/32/3
f 16/1/1 17/37/1 18/38/1 12/28/1
f 17/36/6 20/35/6 19/21/6 18/33/6
