# Blender v2.92.0 OBJ File: 'simpletestlvl.blend'
# www.blender.org
mtllib simpletestlvl.mtl
o Cube
v -4.677852 -4.677852 4.677852
v -4.677852 4.677852 4.677852
v -4.677852 -4.677852 -4.677852
v -4.677852 4.677852 -4.677852
v 4.677852 -4.677852 4.677852
v 4.677852 4.677852 4.677852
v 4.677852 -4.677852 -4.677852
v 4.677852 4.677852 -4.677852
v -2.337520 4.677852 4.677852
v -2.337520 -4.677852 -4.677852
v -2.337520 4.677852 -4.677852
v -2.337520 -4.677852 4.677852
v 2.519718 4.677852 4.677852
v 2.519718 -4.677852 -4.677852
v 2.519718 4.677852 -4.677852
v 2.519718 -4.677852 4.677852
v 2.519718 -4.677852 24.393177
v -2.337520 -4.677852 24.393177
v -2.337520 4.677852 24.393177
v 2.519718 4.677852 24.393177
v 2.519718 -4.677852 36.976299
v -2.337520 -4.677852 36.976299
v -2.337520 4.677852 36.976299
v 2.519718 4.677852 36.976299
v -13.951013 -4.677852 24.393177
v -13.951013 4.677852 24.393177
v -13.951013 -4.677852 36.976299
v -13.951013 4.677852 36.976299
v 13.729478 -4.677852 24.393177
v 13.729478 4.677852 24.393177
v 13.729478 -4.677852 36.976299
v 13.729478 4.677852 36.976299
v -2.337520 13.545403 24.393177
v 2.519718 13.545403 24.393177
v -2.337520 13.545403 36.976299
v 2.519718 13.545403 36.976299
v -13.951013 13.545403 24.393177
v -13.951013 13.545403 36.976299
v 13.729478 13.545403 24.393177
v 13.729478 13.545403 36.976299
vt 0.817331 0.500000
vt 0.875000 0.500000
vt 0.875000 0.750000
vt 0.817331 0.750000
vt 0.375000 0.942331
vt 0.625000 0.942331
vt 0.625000 1.000000
vt 0.375000 1.000000
vt 0.375000 0.000000
vt 0.625000 0.000000
vt 0.625000 0.250000
vt 0.375000 0.250000
vt 0.312462 0.500000
vt 0.375000 0.500000
vt 0.375000 0.750000
vt 0.312462 0.750000
vt 0.625000 0.500000
vt 0.625000 0.750000
vt 0.375000 0.437462
vt 0.625000 0.437462
vt 0.182669 0.500000
vt 0.182669 0.500000
vt 0.312462 0.500000
vt 0.182669 0.750000
vt 0.625000 0.812538
vt 0.375000 0.812538
vt 0.687538 0.500000
vt 0.687538 0.750000
vt 0.125000 0.500000
vt 0.125000 0.750000
vt 0.625000 0.307669
vt 0.375000 0.307669
vt 0.375000 0.307669
vt 0.625000 0.307669
vt 0.625000 0.307669
vt 0.375000 0.307669
vt 0.375000 0.437462
vt 0.625000 0.437462
vt 0.687538 0.500000
vt 0.817331 0.500000
vt 0.375000 0.307669
vt 0.625000 0.307669
vt 0.625000 0.437462
vt 0.375000 0.437462
vt 0.375000 0.437462
vt 0.375000 0.307669
vt 0.375000 0.437462
vt 0.375000 0.437462
vt 0.375000 0.437462
vt 0.687538 0.500000
vt 0.817331 0.500000
vt 0.625000 0.437462
vt 0.375000 0.437462
vt 0.625000 0.437462
vt 0.687538 0.500000
vt 0.687538 0.500000
vt 0.625000 0.307669
vt 0.375000 0.307669
vt 0.817331 0.500000
vt 0.817331 0.500000
vt 0.375000 0.307669
vt 0.375000 0.307669
vt 0.312462 0.500000
vt 0.312462 0.500000
vt 0.312462 0.500000
vt 0.312462 0.500000
vt 0.182669 0.500000
vt 0.182669 0.500000
vt 0.182669 0.500000
vt 0.182669 0.500000
vt 0.375000 0.437462
vt 0.375000 0.307669
vn 0.0000 1.0000 0.0000
vn 0.0000 0.0000 1.0000
vn -1.0000 0.0000 0.0000
vn 0.0000 -1.0000 0.0000
vn 1.0000 0.0000 0.0000
vn 0.0000 0.0000 -1.0000
usemtl Material
s off
f 16/1/1 5/2/1 7/3/1 14/4/1
f 15/5/2 14/6/2 7/7/2 8/8/2
f 8/9/3 7/10/3 5/11/3 6/12/3
f 9/13/4 2/14/4 4/15/4 11/16/4
f 2/14/5 1/17/5 3/18/5 4/15/5
f 9/19/6 12/20/6 1/17/6 2/14/6
f 9/13/4 13/21/4 20/22/4 19/23/4
f 13/21/4 9/13/4 11/16/4 15/24/4
f 4/15/2 3/18/2 10/25/2 11/26/2
f 1/17/1 12/27/1 10/28/1 3/18/1
f 6/29/4 13/21/4 15/24/4 8/30/4
f 6/12/6 5/11/6 16/31/6 13/32/6
f 11/26/2 10/25/2 14/6/2 15/5/2
f 12/27/1 16/1/1 14/4/1 10/28/1
f 20/33/2 17/34/2 29/35/2 30/36/2
f 12/20/5 9/19/5 19/37/5 18/38/5
f 13/32/3 16/31/3 17/34/3 20/33/3
f 16/1/1 12/27/1 18/39/1 17/40/1
f 24/41/6 21/42/6 22/43/6 23/44/6
f 24/41/6 23/44/6 35/45/6 36/46/6
f 26/47/2 19/37/2 33/48/2 37/49/2
f 17/40/1 18/39/1 22/50/1 21/51/1
f 25/52/5 26/47/5 28/53/5 27/54/5
f 18/38/2 19/37/2 26/47/2 25/52/2
f 22/50/1 18/39/1 25/55/1 27/56/1
f 23/44/6 22/43/6 27/54/6 28/53/6
f 30/36/3 29/35/3 31/57/3 32/58/3
f 17/40/1 21/51/1 31/59/1 29/60/1
f 30/36/3 32/58/3 40/61/3 39/62/3
f 21/42/6 24/41/6 32/58/6 31/57/6
f 33/63/4 35/64/4 38/65/4 37/66/4
f 33/63/4 34/67/4 36/68/4 35/64/4
f 36/68/4 34/67/4 39/69/4 40/70/4
f 19/23/2 20/22/2 34/67/2 33/63/2
f 32/58/6 24/41/6 36/46/6 40/61/6
f 23/44/6 28/53/6 38/71/6 35/45/6
f 20/33/2 30/36/2 39/62/2 34/72/2
f 28/53/5 26/47/5 37/49/5 38/71/5
